<?xml version="1.0" encoding="utf-8"?>
<!-- Generator: Adobe Illustrator 26.0.2, SVG Export Plug-In . SVG Version: 6.00 Build 0)  -->
<svg version="1.1" id="Layer_1" xmlns="http://www.w3.org/2000/svg" xmlns:xlink="http://www.w3.org/1999/xlink" x="0px" y="0px"
	 viewBox="0 0 285.6 470.4" style="enable-background:new 0 0 285.6 470.4;" xml:space="preserve">
<style type="text/css">
	.st0{fill:#FFFFFF;}
</style>
<path class="st0" d="M117.6,167.8v33.8h-84c-9.3,0-16.8,7.5-16.8,16.8c0,9.3,7.5,16.8,16.8,16.8h16.8v151.2c0,46.3,37.7,84,84,84
	s84-37.7,84-84l0-151.2h16.8c9.3,0,16.8-7.5,16.8-16.8c0-9.3-7.5-16.8-16.8-16.8h-84V151c36.5-0.8,72.9-5.6,99.9-29.2
	c31.9-27.9,34.5-65.6,34.5-105c0-9.3-7.5-16.8-16.8-16.8c-31.9,0-76.9,6.1-110.1,35.1c-15,13.1-24.4,28.9-30.5,44.2
	c-4-5.3-8.4-10.4-13.9-15.1C84.8,38.9,45,33.6,16.8,33.6C7.5,33.6,0,41.1,0,50.4c0,34.4,2.4,67.4,31.1,92
	C54.6,162.5,86,167,117.6,167.8L117.6,167.8z M180.9,60.4c20.2-17.7,47.4-24.2,70.9-26.1c-1,25.8-5.3,46.9-22.8,62.3
	c-18.6,16.2-47,20.1-76.5,20.9C154.9,100.7,161.8,77.1,180.9,60.4L180.9,60.4z M84,235.2h33.6v84H84V235.2z M151.2,235.2h33.6v84
	h-33.6V235.2z M134.4,403.2c9.3,0,16.8-7.5,16.8-16.8v-33.6h33.6v33.6c0,27.8-22.6,50.4-50.4,50.4S84,414.2,84,386.4v-33.6h33.6
	v33.6C117.6,395.7,125.1,403.2,134.4,403.2L134.4,403.2z M92.5,89.7c13.5,11.6,20.7,28.6,23.6,44.5c-24.5-0.8-47.9-4.3-63.1-17.3
	c-14-12-17.9-28.6-19-48.9C53.6,69.9,75.9,75.5,92.5,89.7L92.5,89.7z"/>
</svg>
